# xmcd
#
# Track frame offsets: 
#        150
#        15143
#        28523
#        69710
#        85617
#        102720
#        116052
#        132452
#        151298
#        163347
#        179124
#        186483
#
# Disc length: 2762 seconds
#
# Revision: 0
# Processed by: cddbd v1.5.2PL0 Copyright (c) Steve Scherf et al.
# Submitted via: ExactAudioCopy v0.99pb4
#
DISCID=a70ac80c
DTITLE=John Denver - For You - The Very Best of John Denver CD1
DYEAR=2007
DGENRE=Country
TTITLE0=For You
TTITLE1=Eagle And The Hawk
TTITLE2=Fox Fire Suite
TTITLE3=Two Different Directions
TTITLE4=A Country Girl In Paris
TTITLE5=Whispering Jesse
TTITLE6=Leaving On A Jet Plane
TTITLE7=Rocky Mountain High
TTITLE8=Perhaps Love
TTITLE9=Higher Ground
TTITLE10=Deal With The Ladies
TTITLE11=Sing Australia
EXTD=
EXTT0=
EXTT1=
EXTT2=
EXTT3=
EXTT4=
EXTT5=
EXTT6=
EXTT7=
EXTT8=
EXTT9=
EXTT10=
EXTT11=
PLAYORDER=
